<?xml version="1.0" ?><!DOCTYPE svg  PUBLIC '-//W3C//DTD SVG 1.1//EN'  'http://www.w3.org/Graphics/SVG/1.1/DTD/svg11.dtd'><svg height="100%" style="fill-rule:evenodd;clip-rule:evenodd;stroke-linejoin:round;stroke-miterlimit:2;" version="1.1" viewBox="0 0 24 24" width="100%" xml:space="preserve" xmlns="http://www.w3.org/2000/svg" xmlns:serif="http://www.serif.com/" xmlns:xlink="http://www.w3.org/1999/xlink"><g id="Icon"><path d="M4.251,9.031c-0,0 0.194,4.655 0.34,8.167c0.106,2.544 2.199,4.552 4.746,4.552c1.68,-0 3.646,-0 5.326,-0c2.547,0 4.64,-2.008 4.746,-4.552c0.146,-3.512 0.34,-8.167 0.34,-8.167c0.018,-0.413 -0.304,-0.763 -0.718,-0.78c-0.413,-0.018 -0.763,0.304 -0.78,0.718c-0,-0 -0.194,4.655 -0.341,8.166c-0.072,1.741 -1.505,3.115 -3.247,3.115c-1.68,-0 -3.646,-0 -5.326,-0c-1.742,0 -3.175,-1.374 -3.247,-3.115c-0.147,-3.511 -0.341,-8.166 -0.341,-8.166c-0.017,-0.414 -0.367,-0.736 -0.78,-0.718c-0.414,0.017 -0.736,0.367 -0.718,0.78Z"/><path d="M7.459,5.25l0.374,-1.12c0.374,-1.123 1.425,-1.88 2.609,-1.88c0.944,-0 2.172,-0 3.116,-0c1.184,-0 2.235,0.757 2.609,1.88l0.374,1.12l3.459,-0c0.414,-0 0.75,0.336 0.75,0.75c0,0.414 -0.336,0.75 -0.75,0.75l-16,-0c-0.414,-0 -0.75,-0.336 -0.75,-0.75c0,-0.414 0.336,-0.75 0.75,-0.75l3.459,-0Zm7.5,-0l-0.215,-0.645c-0.17,-0.511 -0.647,-0.855 -1.186,-0.855c-0.944,-0 -2.172,-0 -3.116,-0c-0.539,-0 -1.016,0.344 -1.186,0.855l-0.215,0.645l5.918,-0Z"/><path d="M9.25,11l0,5c0,0.414 0.336,0.75 0.75,0.75c0.414,-0 0.75,-0.336 0.75,-0.75l0,-5c0,-0.414 -0.336,-0.75 -0.75,-0.75c-0.414,-0 -0.75,0.336 -0.75,0.75Z"/><path d="M13.25,11l0,5c-0,0.414 0.336,0.75 0.75,0.75c0.414,0 0.75,-0.336 0.75,-0.75l0,-5c-0,-0.414 -0.336,-0.75 -0.75,-0.75c-0.414,0 -0.75,0.336 -0.75,0.75Z"/></g></svg>